<svg xmlns="http://www.w3.org/2000/svg" viewBox="0 0 200 200" width="200" height="200">
  <defs>
    <linearGradient id="logoGradient" x1="0%" y1="0%" x2="100%" y2="100%">
      <stop offset="0%" style="stop-color:#0066cc;stop-opacity:1" />
      <stop offset="100%" style="stop-color:#004d99;stop-opacity:1" />
    </linearGradient>
  </defs>
  
  <circle cx="100" cy="100" r="90" fill="url(#logoGradient)" />
  
  <g transform="translate(100, 100)">
    <path d="M -30,-20 L -30,20 L -25,20 C -10,20 0,15 0,0 C 0,-15 -10,-20 -25,-20 Z" 
          fill="white" opacity="0.9"/>
    
    <path d="M 5,-20 L 5,20 L 20,20 L 20,15 L 10,15 L 10,2 L 18,2 L 18,-3 L 10,-3 L 10,-15 L 20,-15 L 20,-20 Z" 
          fill="white" opacity="0.9"/>
    
    <circle cx="-30" cy="35" r="4" fill="#ff6600"/>
    <circle cx="0" cy="35" r="4" fill="#ff6600"/>
    <circle cx="15" cy="35" r="4" fill="#ff6600"/>
  </g>
  
  <text x="100" y="175" font-family="Arial, sans-serif" font-size="24" font-weight="bold" 
        text-anchor="middle" fill="white">CPTTM</text>
</svg>
